<svg width="48" height="44" viewBox="0 0 48 44" fill="none" xmlns="http://www.w3.org/2000/svg">
    <path d="M21.3832 43.7053C21.3757 43.6977 21.3701 42.5622 21.3701 41.18C21.3701 39.6258 21.3626 38.6681 21.3513 38.6681C21.3419 38.6681 21.3307 38.6356 21.3269 38.5954L21.3213 38.5228L16.0557 38.5113L16.0444 33.1051L10.7413 33.0936L10.7301 27.6683L5.42699 27.6568V25.0168C5.42699 23.2695 5.42137 22.3768 5.40824 22.3768C5.39699 22.3768 5.38949 22.3558 5.38949 22.329V22.2812H0V11.3924L5.39669 11.3809L5.40794 5.89828L10.7297 5.88681L10.741 0.480554H21.4033V5.87898H24.2686V9.04086L24.4355 8.61456C24.8556 7.54784 25.2625 6.74495 25.8326 5.85794C26.3314 5.08182 26.8301 4.44905 27.4827 3.77041C28.5291 2.68265 29.5792 1.90653 30.8993 1.24317C31.8013 0.790106 32.6714 0.482321 33.6502 0.268214C34.4697 0.0885164 35.0585 0.0196987 35.8892 0.0024919C37.785 -0.0357414 39.5327 0.36571 41.211 1.22596C43.2137 2.25064 44.8283 3.80669 46.0398 5.87704C46.7974 7.17123 47.3918 8.73496 47.7462 10.3656C47.9413 11.2603 47.9844 11.614 47.9975 12.4303C48.0031 12.8107 47.9994 13.151 47.9844 13.3498C47.7931 16.0261 46.6736 19.0081 44.5715 22.4475C42.9589 25.0856 40.6149 28.1268 37.8509 31.1703C36.8026 32.325 35.0118 34.1812 33.8661 35.3033C31.5728 37.5476 29.3731 39.5472 26.8454 41.6864C26.0578 42.3536 25.0696 43.1679 24.5596 43.5713L24.3889 43.7071L22.8888 43.7128C22.0637 43.7166 21.383 43.7128 21.3755 43.7051L21.3832 43.7053Z" fill="#FFC59B"/>
</svg>
